<?xml version="1.0" standalone="no"?>
<!DOCTYPE svg PUBLIC "-//W3C//DTD SVG 20010904//EN"
 "http://www.w3.org/TR/2001/REC-SVG-20010904/DTD/svg10.dtd">
<svg version="1.0" xmlns="http://www.w3.org/2000/svg"
 width="617.000000pt" height="404.000000pt" viewBox="0 0 617.000000 404.000000"
 preserveAspectRatio="xMidYMid meet">

<g transform="translate(0.000000,404.000000) scale(0.100000,-0.100000)"
fill="#000000" stroke="none">
<path d="M1965 3454 c-186 -22 -364 -56 -457 -89 -24 -8 -50 -15 -59 -15 -9 0
-26 -8 -38 -17 l-21 -18 20 -165 c11 -91 23 -188 26 -216 5 -42 12 -54 38 -72
34 -23 47 -27 45 -14 -4 22 4 29 28 28 18 -1 27 4 29 17 4 28 11 31 19 7 4
-12 2 -27 -4 -33 -6 -6 -11 -15 -11 -20 0 -17 21 5 41 44 27 54 150 192 203
228 48 33 170 85 256 109 30 8 98 18 150 22 83 6 87 7 33 8 -71 2 -83 18 -30
41 17 8 37 20 42 27 6 7 33 24 60 39 28 14 56 33 63 43 11 14 30 17 120 16
l107 -2 -64 14 c-159 33 -405 41 -596 18z m212 -190 c-3 -3 -12 -4 -19 -1 -8
3 -5 6 6 6 11 1 17 -2 13 -5z"/>
<path d="M3503 3453 c9 -2 23 -2 30 0 6 3 -1 5 -18 5 -16 0 -22 -2 -12 -5z"/>
<path d="M3818 3449 c29 -16 28 -35 -1 -43 -13 -3 -39 -18 -59 -33 -19 -16
-52 -37 -74 -48 -21 -11 -43 -25 -47 -32 -4 -7 -27 -18 -50 -25 -42 -12 -41
-12 63 -19 178 -13 228 -27 410 -112 14 -7 56 -42 94 -79 38 -37 72 -66 75
-63 2 3 -1 11 -7 17 -15 15 -16 31 0 22 7 -5 9 -2 5 8 -3 9 0 15 6 14 11 -1
74 36 189 112 38 24 54 30 64 22 10 -9 14 -2 19 32 4 24 5 59 3 78 -3 34 -4
35 -93 62 -159 50 -354 85 -515 93 -84 4 -100 3 -82 -6z"/>
<path d="M3061 3360 c-52 -19 -81 -36 -81 -49 0 -3 27 -21 61 -40 74 -41 198
-138 222 -174 17 -27 17 -27 -6 -36 -12 -5 -29 -16 -36 -25 -7 -9 -17 -16 -22
-16 -4 0 -35 -18 -69 -41 -34 -23 -74 -41 -90 -41 l-30 -1 36 -46 c19 -25 46
-62 60 -83 29 -41 94 -188 120 -269 9 -30 21 -58 25 -64 5 -5 10 -29 11 -55 1
-43 2 -43 5 -8 5 43 9 47 132 118 46 27 94 58 107 69 13 12 24 18 24 13 0 -4
7 2 15 12 11 14 15 16 15 5 1 -11 4 -10 14 4 20 25 31 21 46 -19 8 -20 16 -31
18 -25 5 15 -83 178 -146 272 -28 41 -98 124 -156 184 -58 60 -103 112 -99
115 13 11 167 59 212 66 22 4 41 11 41 16 0 6 -8 7 -17 3 -10 -3 -39 -9 -64
-12 -43 -5 -50 -2 -125 52 -77 55 -145 95 -161 95 -4 -1 -32 -9 -62 -20z"/>
<path d="M1560 2810 c-9 -6 -10 -10 -3 -10 6 0 15 5 18 10 8 12 4 12 -15 0z"/>
<path d="M2730 2737 c0 -9 -13 -18 -30 -22 -17 -4 -28 -11 -24 -16 3 -5 -4 -9
-15 -9 -12 0 -21 -4 -21 -10 0 -5 -17 -17 -37 -27 -21 -9 -44 -23 -51 -30 -7
-7 -30 -20 -50 -30 -37 -17 -116 -68 -140 -90 -7 -7 -22 -13 -33 -13 -10 0
-19 -7 -19 -15 0 -9 -12 -18 -30 -21 -16 -4 -28 -10 -25 -14 4 -7 -17 -20 -31
-20 -9 0 -4 39 6 45 6 3 10 13 10 21 0 8 -4 13 -9 9 -13 -7 -41 -106 -41 -142
0 -16 -5 -34 -10 -39 -26 -26 -63 -310 -57 -435 4 -107 17 -159 30 -125 4 9
11 16 16 16 6 0 41 20 78 45 l68 46 7 -58 c13 -99 15 -92 10 34 -6 143 19 383
49 483 30 99 51 150 60 150 12 0 11 -38 -3 -152 -9 -78 -9 -122 1 -215 7 -65
19 -131 26 -148 7 -16 14 -24 14 -17 1 19 31 46 71 65 19 8 44 24 55 35 20 19
20 19 38 -7 l19 -26 -6 35 c-15 83 -18 214 -7 306 21 170 41 251 86 334 19 36
22 62 8 67 -7 3 -13 -2 -13 -10z"/>
<path d="M3442 2486 c1 -10 8 -17 13 -17 15 1 12 24 -3 29 -9 3 -13 -2 -10
-12z"/>
<path d="M3771 2095 c-1 -16 -4 -39 -7 -51 -5 -20 -92 -84 -115 -84 -6 0 -22
-11 -35 -25 -20 -21 -23 -22 -27 -7 -3 9 -5 -12 -6 -48 -2 -103 -26 -240 -62
-350 -9 -30 -21 -70 -24 -89 -10 -46 -114 -241 -129 -241 -17 0 -165 78 -203
108 -38 28 -41 42 -12 67 40 37 159 203 173 241 7 21 28 67 45 100 36 70 36
74 16 74 -8 0 -15 -5 -15 -12 0 -6 -3 -9 -6 -5 -6 6 -100 -51 -170 -103 -50
-37 -54 -37 -54 -4 0 14 -4 23 -10 19 -6 -3 -8 -18 -5 -33 4 -20 3 -22 -3 -8
-7 17 -10 16 -27 -10 -16 -25 -100 -130 -125 -157 -4 -5 -23 5 -43 22 -28 26
-36 28 -41 16 -3 -9 -2 -13 4 -10 6 3 10 0 10 -8 0 -8 -17 -22 -38 -30 -21 -8
-44 -22 -51 -31 -8 -9 -19 -16 -26 -16 -8 0 -15 -5 -17 -11 -2 -7 -16 -1 -32
15 -35 32 -46 34 -20 4 69 -81 186 -194 224 -217 25 -14 63 -39 85 -54 22 -16
67 -44 100 -64 83 -49 148 -67 98 -26 -14 10 -15 13 -3 11 8 -2 33 8 55 21 22
13 41 22 42 20 1 -2 13 7 27 20 29 28 59 29 136 8 30 -9 64 -18 75 -21 17 -5
26 6 58 72 40 83 45 101 23 83 -16 -13 -46 -4 -46 14 0 12 28 25 60 29 8 0 19
17 25 36 5 19 15 44 21 55 24 41 65 190 79 286 16 106 19 319 6 384 -8 36 -9
37 -10 10z"/>
<path d="M3462 2050 c0 -14 2 -19 5 -12 2 6 2 18 0 25 -3 6 -5 1 -5 -13z"/>
<path d="M3441 1954 c0 -11 3 -14 6 -6 3 7 2 16 -1 19 -3 4 -6 -2 -5 -13z"/>
<path d="M3420 1883 c0 -10 -7 -31 -15 -47 -17 -33 -19 -39 -6 -32 14 9 41 96
30 96 -5 0 -9 -8 -9 -17z"/>
<path d="M3191 1819 c-6 -18 -9 -34 -7 -36 2 -2 9 10 15 28 6 18 9 34 7 36 -2
2 -9 -10 -15 -28z"/>
<path d="M1024 1733 c-8 -3 -9 -15 -4 -38 5 -23 4 -32 -4 -29 -14 5 -30 -6
-43 -30 -10 -18 -11 -16 -18 12 -3 17 -3 37 1 43 4 7 1 10 -7 7 -8 -2 -15 -20
-17 -39 -1 -19 -7 -61 -12 -94 -5 -33 -16 -139 -25 -235 -8 -96 -17 -186 -20
-200 -3 -14 -7 -59 -10 -100 -6 -73 -5 -76 25 -110 16 -19 30 -29 30 -24 0 6
-9 19 -20 29 -20 18 -29 52 -11 40 5 -3 16 3 23 13 11 16 111 82 123 82 4 0
28 16 127 82 25 17 30 17 74 2 25 -8 48 -14 49 -12 4 4 -113 62 -157 77 -20 7
-30 20 -37 48 -14 55 -30 200 -37 338 -7 125 -11 145 -30 138z m-77 -115 c-3
-8 -6 -5 -6 6 -1 11 2 17 5 13 3 -3 4 -12 1 -19z"/>
<path d="M4862 1590 c0 -14 2 -19 5 -12 2 6 2 18 0 25 -3 6 -5 1 -5 -13z"/>
<path d="M4840 1433 c-1 -39 -22 -189 -30 -202 -5 -10 -59 -37 -120 -61 -75
-29 -109 -48 -106 -56 7 -19 -12 -28 -29 -14 -10 9 -22 9 -42 2 l-28 -10 28
-1 c35 -1 34 -15 -3 -38 -16 -9 -30 -20 -30 -24 0 -4 -12 -9 -28 -12 -15 -3
-40 -17 -56 -31 -17 -14 -45 -33 -63 -43 -18 -10 -33 -21 -33 -25 0 -5 -8 -8
-17 -8 -15 0 -16 -2 -3 -10 11 -7 5 -10 -22 -10 -21 0 -38 -5 -38 -11 0 -7 15
-9 43 -5 23 3 89 10 146 16 58 6 128 17 155 24 94 27 151 44 169 51 29 12 19
-12 -15 -38 -36 -26 -242 -144 -298 -171 -20 -9 -66 -25 -103 -36 -37 -11 -97
-29 -134 -40 -136 -41 -228 -55 -483 -73 -33 -3 -26 -4 25 -6 l70 -3 -45 -15
c-25 -9 -49 -22 -55 -29 -12 -15 -121 -84 -133 -84 -4 0 -13 -5 -20 -12 -7 -7
-37 -11 -74 -10 -106 3 -32 -17 111 -29 247 -22 524 12 747 91 222 79 222 79
374 168 121 71 186 118 283 205 83 76 87 84 68 170 -5 23 -17 104 -27 179 -16
128 -18 137 -35 127 -11 -5 -19 -14 -19 -19 0 -4 -16 -14 -35 -20 -19 -6 -35
-15 -35 -19 0 -4 -11 -14 -25 -21 -13 -7 -26 -20 -29 -29 -3 -9 -3 30 0 87 3
56 3 102 0 102 -3 0 -6 -3 -6 -7z"/>
<path d="M2452 1333 c6 -15 15 -32 19 -38 12 -18 22 -78 11 -71 -5 3 -28 -8
-51 -24 -22 -17 -45 -30 -51 -30 -5 0 -10 -5 -10 -11 0 -5 -4 -8 -9 -4 -18 10
-21 -13 -6 -41 8 -16 15 -34 15 -40 0 -6 7 -18 17 -25 9 -8 33 -36 54 -64 79
-106 259 -272 280 -259 6 3 5 12 -3 22 -7 10 -9 14 -4 10 4 -3 24 5 43 18 20
13 45 24 55 24 14 0 18 5 14 15 -8 22 46 19 89 -5 66 -37 35 -3 -42 47 -141
90 -309 276 -379 418 -36 74 -66 115 -42 58z"/>
<path d="M1308 1123 c7 -3 16 -2 19 1 4 3 -2 6 -13 5 -11 0 -14 -3 -6 -6z"/>
<path d="M2098 1043 c7 -3 16 -2 19 1 4 3 -2 6 -13 5 -11 0 -14 -3 -6 -6z"/>
<path d="M2136 1026 c5 -14 -21 -31 -126 -83 -55 -27 -82 -51 -74 -65 7 -11
82 -10 162 2 37 5 97 12 135 16 43 3 67 10 67 18 0 12 -54 67 -104 104 -33 25
-68 30 -60 8z"/>
<path d="M1145 960 c3 -5 8 -10 11 -10 2 0 4 5 4 10 0 6 -5 10 -11 10 -5 0 -7
-4 -4 -10z"/>
<path d="M1580 711 c0 -5 10 -12 23 -15 20 -6 19 -8 -19 -29 -136 -75 -146
-79 -183 -73 -34 6 -35 5 -17 -9 11 -8 29 -15 40 -15 12 0 48 -12 81 -26 105
-45 227 -82 339 -103 126 -25 374 -37 461 -23 l60 10 -90 2 c-61 1 -82 4 -64
10 14 4 48 23 75 42 27 19 64 41 82 49 17 7 32 17 32 20 0 3 24 21 53 40 l52
34 -45 3 c-25 2 -99 -1 -165 -6 -220 -15 -423 9 -635 77 -74 24 -80 24 -80 12z"/>
<path d="M2545 610 c3 -5 11 -10 16 -10 6 0 7 5 4 10 -3 6 -11 10 -16 10 -6 0
-7 -4 -4 -10z"/>
<path d="M3573 613 c9 -2 25 -2 35 0 9 3 1 5 -18 5 -19 0 -27 -2 -17 -5z"/>
</g>
</svg>
